<?xml version="1.0" encoding="utf-8"?>
<!-- Generator: Adobe Illustrator 24.3.0, SVG Export Plug-In . SVG Version: 6.00 Build 0)  -->
<svg version="1.1" id="Layer_1" xmlns="http://www.w3.org/2000/svg" xmlns:xlink="http://www.w3.org/1999/xlink" x="0px" y="0px"
	 viewBox="0 0 131.3 189.4" style="enable-background:new 0 0 131.3 189.4;" xml:space="preserve">
<style type="text/css">
	.st0{fill:#F8AD44;}
	.st1{fill:#FFFFFF;}
	.st2{fill:#F9D3AF;}
	.st3{fill:#029247;}
	.st4{fill:#221F20;}
	.st5{fill:none;}
	.st6{fill:#815521;}
	.st7{fill:#DCAD79;}
	.st8{fill:#E6282B;}
	.st9{fill:#C38B64;}
</style>
<g>
	<g>
		<polygon points="26.3,79.6 26.3,79.7 51,68.2 26.3,68.2 		"/>
		<polygon points="26.3,48.3 26.3,61.4 54.2,61.4 		"/>
		<polygon class="st0" points="26.3,42.2 26.3,48.3 54.2,61.4 26.3,61.4 26.3,68.2 51,68.2 26.3,79.7 26.3,79.7 26.3,87.9 
			26.3,87.9 65.8,69.8 65.8,60.6 		"/>
		<polygon class="st1" points="131.3,12.2 105.1,0 65.6,18.3 65.6,26.7 105.1,45.1 105.1,82.5 52.7,106.8 52.5,144.4 131.3,107.6 
			131.3,12.2 		"/>
		<polygon class="st2" points="65.8,91.9 65.8,69.8 26.3,87.9 26.3,147.2 52.5,159.4 52.6,132 65.6,138.1 65.6,112.6 74.9,112.6 		
			"/>
		<polygon class="st0" points="26.3,147.2 52.5,159.4 52.5,166.9 26.3,154.7 		"/>
		<polygon class="st3" points="26.3,154.6 26.3,177.2 52.5,189.4 52.5,166.9 		"/>
		<polygon points="0,99.4 26.3,87.2 26.3,87.2 0,99.4 		"/>
		<polygon points="0,189.4 26.3,177.2 26.3,87.2 0,99.4 		"/>
		<g>
			<polygon class="st4" points="131.3,16.9 65.9,16.9 62.7,23.8 131.3,23.8 			"/>
		</g>
		<polygon points="52.5,152.1 52.5,189.4 131.3,152.7 131.3,115.2 		"/>
		<polygon points="5.2,89.5 20.9,82.1 20.9,68.2 5.2,68.2 		"/>
		<rect x="4.3" y="53.7" class="st5" width="17.4" height="0"/>
		<polygon points="5.2,61.4 20.9,61.4 20.9,50 5.2,57.4 		"/>
		<path class="st6" d="M0,54.4v0.2v5.2v32.1v7.6v45l5.2-2.2V97l15.8-7.4v52.6l5.3-2.4v-52v-0.7v-7.5v0v-0.1V68.2v-6.8v-4.2v-8.9
			v-0.8v-1.6v-3.7L0,54.4z M5.2,57.4L20.9,50v0v11.4H5.2V57.4L5.2,57.4z M20.9,68.2v13.9L5.2,89.5V68.2H20.9z"/>
		<polygon points="84.7,91.9 72.9,91.9 68.7,91.9 65.8,91.9 69,99.3 84.8,91.9 		"/>
		<polygon class="st0" points="52.5,144.4 52.5,151.9 52.5,151.9 131.3,115.1 131.3,107.6 		"/>
		<polygon class="st7" points="52.6,131.9 52.6,144.6 26.3,119.7 		"/>
		<path d="M52.7,88.1L52.7,88.1c0,2.1,1.7,3.8,3.7,3.8h0h6.6v-0.4c-1.8,0-3.3-1.5-3.3-3.3H52.7z"/>
		<g>
			<polygon class="st8" points="65.6,114.8 56.3,118.7 65.6,118.7 			"/>
			<polygon class="st8" points="56.3,118.7 65.6,122.3 65.6,118.7 			"/>
		</g>
		<polygon class="st9" points="65.6,26.7 65.6,47.5 56.5,68.2 65.8,68.2 65.8,91.9 84.7,91.9 84.7,91.9 105.1,82.5 105.1,45.1 		"/>
		<path class="st4" d="M78.7,44.6c0,2.1-1.7,3.8-3.8,3.8c-2.1,0-3.8-1.7-3.8-3.8c0-2.1,1.7-3.8,3.8-3.8C77,40.8,78.7,42.5,78.7,44.6
			z"/>
		<g>
			<polygon class="st4" points="65.6,68.2 78.8,68.2 82,75 65.6,75 			"/>
		</g>
	</g>
</g>
</svg>
